<mxfile host="app.diagrams.net" modified="2023-06-28T01:27:41.611Z" agent="Mozilla/5.0 (Windows NT 10.0; Win64; x64) AppleWebKit/537.36 (KHTML, like Gecko) Chrome/114.0.0.0 Safari/537.36 Edg/114.0.1823.51" etag="n2uzGXkZIA-AfMpr1qW9" version="21.5.1" type="device">
  <diagram id="4MHzZf12IdjCN7fdoaNl" name="第 1 页">
    <mxGraphModel dx="989" dy="543" grid="1" gridSize="1" guides="1" tooltips="1" connect="1" arrows="1" fold="1" page="1" pageScale="1" pageWidth="1169" pageHeight="827" math="0" shadow="0">
      <root>
        <mxCell id="0" />
        <mxCell id="1" parent="0" />
        <mxCell id="CCkl5qkvYxKrHv8DzvY5-9" value="&lt;b&gt;SoC底板&lt;/b&gt;" style="rounded=0;whiteSpace=wrap;html=1;verticalAlign=top;fillColor=#dae8fc;strokeColor=#6c8ebf;" parent="1" vertex="1">
          <mxGeometry x="280" y="70" width="540" height="550" as="geometry" />
        </mxCell>
        <mxCell id="CCkl5qkvYxKrHv8DzvY5-1" value="&lt;b&gt;ZYNQ核心板&lt;/b&gt;" style="rounded=0;whiteSpace=wrap;html=1;verticalAlign=top;fillColor=#ffe6cc;strokeColor=#d79b00;" parent="1" vertex="1">
          <mxGeometry x="410" y="110" width="280" height="480" as="geometry" />
        </mxCell>
        <mxCell id="CCkl5qkvYxKrHv8DzvY5-2" value="&lt;b&gt;BANK 501&lt;br&gt;1.8V&lt;br&gt;&lt;/b&gt;" style="rounded=0;whiteSpace=wrap;html=1;verticalAlign=middle;fillColor=#fff2cc;strokeColor=#d6b656;" parent="1" vertex="1">
          <mxGeometry x="436" y="277.5" width="70" height="170" as="geometry" />
        </mxCell>
        <mxCell id="CCkl5qkvYxKrHv8DzvY5-3" value="&lt;b&gt;BANK 500&lt;br&gt;PS 3.3V&lt;br&gt;&lt;/b&gt;" style="rounded=0;whiteSpace=wrap;html=1;verticalAlign=middle;fillColor=#fff2cc;strokeColor=#d6b656;" parent="1" vertex="1">
          <mxGeometry x="436" y="150" width="70" height="110" as="geometry" />
        </mxCell>
        <mxCell id="CCkl5qkvYxKrHv8DzvY5-5" value="&lt;b&gt;BANK 502&lt;br&gt;1.5V&lt;br&gt;&lt;/b&gt;" style="rounded=0;whiteSpace=wrap;html=1;verticalAlign=middle;fillColor=#fff2cc;strokeColor=#d6b656;" parent="1" vertex="1">
          <mxGeometry x="436" y="464" width="70" height="96" as="geometry" />
        </mxCell>
        <mxCell id="vI11PCZts5h01opIFuYc-18" style="edgeStyle=orthogonalEdgeStyle;rounded=0;orthogonalLoop=1;jettySize=auto;html=1;entryX=-0.024;entryY=0.449;entryDx=0;entryDy=0;entryPerimeter=0;startArrow=classic;startFill=1;exitX=1;exitY=0.5;exitDx=0;exitDy=0;" edge="1" parent="1" source="CCkl5qkvYxKrHv8DzvY5-7">
          <mxGeometry relative="1" as="geometry">
            <mxPoint x="601" y="365" as="sourcePoint" />
            <mxPoint x="630.8" y="278.37" as="targetPoint" />
            <Array as="points">
              <mxPoint x="614" y="365" />
              <mxPoint x="614" y="278" />
            </Array>
          </mxGeometry>
        </mxCell>
        <mxCell id="CCkl5qkvYxKrHv8DzvY5-7" value="&lt;b&gt;BANK35&lt;br&gt;PL 3.3V&lt;br&gt;&lt;/b&gt;" style="rounded=0;whiteSpace=wrap;html=1;verticalAlign=middle;fillColor=#e1d5e7;strokeColor=#9673a6;" parent="1" vertex="1">
          <mxGeometry x="530" y="280" width="70" height="170" as="geometry" />
        </mxCell>
        <mxCell id="vI11PCZts5h01opIFuYc-17" style="edgeStyle=orthogonalEdgeStyle;rounded=0;orthogonalLoop=1;jettySize=auto;html=1;exitX=1;exitY=0.5;exitDx=0;exitDy=0;entryX=0.043;entryY=0.451;entryDx=0;entryDy=0;entryPerimeter=0;endArrow=none;endFill=0;startArrow=classic;startFill=1;" edge="1" parent="1" source="CCkl5qkvYxKrHv8DzvY5-8" target="vI11PCZts5h01opIFuYc-16">
          <mxGeometry relative="1" as="geometry">
            <Array as="points">
              <mxPoint x="614" y="205" />
              <mxPoint x="614" y="279" />
            </Array>
          </mxGeometry>
        </mxCell>
        <mxCell id="CCkl5qkvYxKrHv8DzvY5-8" value="&lt;b&gt;BANK34&lt;br&gt;PL 3.3V&lt;br&gt;&lt;/b&gt;" style="rounded=0;whiteSpace=wrap;html=1;verticalAlign=middle;fillColor=#e1d5e7;strokeColor=#9673a6;" parent="1" vertex="1">
          <mxGeometry x="530" y="150" width="70" height="110" as="geometry" />
        </mxCell>
        <mxCell id="vI11PCZts5h01opIFuYc-20" style="edgeStyle=orthogonalEdgeStyle;rounded=0;orthogonalLoop=1;jettySize=auto;html=1;exitX=1;exitY=0.5;exitDx=0;exitDy=0;startArrow=classic;startFill=1;" edge="1" parent="1" source="vI11PCZts5h01opIFuYc-19" target="CCkl5qkvYxKrHv8DzvY5-3">
          <mxGeometry relative="1" as="geometry" />
        </mxCell>
        <mxCell id="vI11PCZts5h01opIFuYc-19" value="&lt;b&gt;&lt;br&gt;&lt;/b&gt;" style="rounded=0;whiteSpace=wrap;html=1;verticalAlign=middle;fillColor=#cdeb8b;strokeColor=#36393d;" vertex="1" parent="1">
          <mxGeometry x="300" y="140" width="90" height="130" as="geometry" />
        </mxCell>
        <mxCell id="vI11PCZts5h01opIFuYc-22" style="edgeStyle=orthogonalEdgeStyle;rounded=0;orthogonalLoop=1;jettySize=auto;html=1;entryX=0;entryY=0.5;entryDx=0;entryDy=0;startArrow=classic;startFill=1;" edge="1" parent="1" source="CCkl5qkvYxKrHv8DzvY5-10" target="CCkl5qkvYxKrHv8DzvY5-5">
          <mxGeometry relative="1" as="geometry" />
        </mxCell>
        <mxCell id="CCkl5qkvYxKrHv8DzvY5-10" value="&lt;b&gt;DDR3&lt;br&gt;SDRAM&lt;br&gt;&lt;/b&gt;" style="rounded=0;whiteSpace=wrap;html=1;verticalAlign=middle;fillColor=#d5e8d4;strokeColor=#82b366;" parent="1" vertex="1">
          <mxGeometry x="310" y="464" width="70" height="96" as="geometry" />
        </mxCell>
        <mxCell id="vI11PCZts5h01opIFuYc-1" value="&lt;b&gt;QSPI Flash&lt;br&gt;&lt;/b&gt;" style="rounded=0;whiteSpace=wrap;html=1;verticalAlign=middle;fillColor=#d5e8d4;strokeColor=#82b366;" vertex="1" parent="1">
          <mxGeometry x="310" y="150" width="70" height="30" as="geometry" />
        </mxCell>
        <mxCell id="vI11PCZts5h01opIFuYc-2" value="&lt;b&gt;UART&lt;br&gt;&lt;/b&gt;" style="rounded=0;whiteSpace=wrap;html=1;verticalAlign=middle;fillColor=#d5e8d4;strokeColor=#82b366;" vertex="1" parent="1">
          <mxGeometry x="310" y="190" width="70" height="30" as="geometry" />
        </mxCell>
        <mxCell id="vI11PCZts5h01opIFuYc-26" style="edgeStyle=orthogonalEdgeStyle;rounded=0;orthogonalLoop=1;jettySize=auto;html=1;entryX=0;entryY=0.5;entryDx=0;entryDy=0;startArrow=classic;startFill=1;" edge="1" parent="1" source="vI11PCZts5h01opIFuYc-21" target="CCkl5qkvYxKrHv8DzvY5-2">
          <mxGeometry relative="1" as="geometry" />
        </mxCell>
        <mxCell id="vI11PCZts5h01opIFuYc-21" value="&lt;b&gt;&lt;br&gt;&lt;/b&gt;" style="rounded=0;whiteSpace=wrap;html=1;verticalAlign=middle;fillColor=#cdeb8b;strokeColor=#36393d;" vertex="1" parent="1">
          <mxGeometry x="300" y="275" width="90" height="175" as="geometry" />
        </mxCell>
        <mxCell id="vI11PCZts5h01opIFuYc-3" value="&lt;b&gt;CAN&lt;br&gt;&lt;/b&gt;" style="rounded=0;whiteSpace=wrap;html=1;verticalAlign=middle;fillColor=#d5e8d4;strokeColor=#82b366;" vertex="1" parent="1">
          <mxGeometry x="310" y="413.5" width="70" height="30" as="geometry" />
        </mxCell>
        <mxCell id="vI11PCZts5h01opIFuYc-4" value="&lt;b&gt;SDIO&lt;br&gt;&lt;/b&gt;" style="rounded=0;whiteSpace=wrap;html=1;verticalAlign=middle;fillColor=#d5e8d4;strokeColor=#82b366;" vertex="1" parent="1">
          <mxGeometry x="310" y="325" width="70" height="30" as="geometry" />
        </mxCell>
        <mxCell id="vI11PCZts5h01opIFuYc-5" value="&lt;b&gt;USB HOST&lt;br&gt;&lt;/b&gt;" style="rounded=0;whiteSpace=wrap;html=1;verticalAlign=middle;fillColor=#d5e8d4;strokeColor=#82b366;" vertex="1" parent="1">
          <mxGeometry x="310" y="280" width="70" height="30" as="geometry" />
        </mxCell>
        <mxCell id="vI11PCZts5h01opIFuYc-6" value="&lt;b&gt;SDIO WIFI&lt;br&gt;&lt;/b&gt;" style="rounded=0;whiteSpace=wrap;html=1;verticalAlign=middle;fillColor=#d5e8d4;strokeColor=#82b366;" vertex="1" parent="1">
          <mxGeometry x="310" y="369" width="70" height="30" as="geometry" />
        </mxCell>
        <mxCell id="vI11PCZts5h01opIFuYc-7" value="&lt;b&gt;LED/KEY&lt;br&gt;&lt;/b&gt;" style="rounded=0;whiteSpace=wrap;html=1;verticalAlign=middle;fillColor=#d5e8d4;strokeColor=#82b366;" vertex="1" parent="1">
          <mxGeometry x="310" y="230" width="70" height="30" as="geometry" />
        </mxCell>
        <mxCell id="vI11PCZts5h01opIFuYc-27" value="&lt;b&gt;&lt;br&gt;&lt;/b&gt;" style="rounded=0;whiteSpace=wrap;html=1;verticalAlign=middle;fillColor=#cdeb8b;strokeColor=#36393d;" vertex="1" parent="1">
          <mxGeometry x="710" y="162.5" width="90" height="245" as="geometry" />
        </mxCell>
        <mxCell id="vI11PCZts5h01opIFuYc-8" value="&lt;b&gt;VGA&lt;br&gt;&lt;/b&gt;" style="rounded=0;whiteSpace=wrap;html=1;verticalAlign=middle;fillColor=#d5e8d4;strokeColor=#82b366;" vertex="1" parent="1">
          <mxGeometry x="720" y="167.5" width="70" height="30" as="geometry" />
        </mxCell>
        <mxCell id="vI11PCZts5h01opIFuYc-9" value="&lt;b&gt;PS/2&lt;br&gt;&lt;/b&gt;" style="rounded=0;whiteSpace=wrap;html=1;verticalAlign=middle;fillColor=#d5e8d4;strokeColor=#82b366;" vertex="1" parent="1">
          <mxGeometry x="720" y="207.5" width="70" height="30" as="geometry" />
        </mxCell>
        <mxCell id="vI11PCZts5h01opIFuYc-10" value="&lt;b&gt;SPI&lt;br&gt;&lt;/b&gt;" style="rounded=0;whiteSpace=wrap;html=1;verticalAlign=middle;fillColor=#d5e8d4;strokeColor=#82b366;" vertex="1" parent="1">
          <mxGeometry x="720" y="247.5" width="70" height="30" as="geometry" />
        </mxCell>
        <mxCell id="vI11PCZts5h01opIFuYc-11" value="&lt;b&gt;I2C&lt;br&gt;&lt;/b&gt;" style="rounded=0;whiteSpace=wrap;html=1;verticalAlign=middle;fillColor=#d5e8d4;strokeColor=#82b366;" vertex="1" parent="1">
          <mxGeometry x="720" y="287.5" width="70" height="30" as="geometry" />
        </mxCell>
        <mxCell id="vI11PCZts5h01opIFuYc-12" value="&lt;b&gt;I2S&lt;br&gt;&lt;/b&gt;" style="rounded=0;whiteSpace=wrap;html=1;verticalAlign=middle;fillColor=#d5e8d4;strokeColor=#82b366;" vertex="1" parent="1">
          <mxGeometry x="720" y="327.5" width="70" height="30" as="geometry" />
        </mxCell>
        <mxCell id="vI11PCZts5h01opIFuYc-13" value="&lt;b&gt;LED/KEY&lt;br&gt;&lt;/b&gt;" style="rounded=0;whiteSpace=wrap;html=1;verticalAlign=middle;fillColor=#d5e8d4;strokeColor=#82b366;" vertex="1" parent="1">
          <mxGeometry x="720" y="367.5" width="70" height="30" as="geometry" />
        </mxCell>
        <mxCell id="vI11PCZts5h01opIFuYc-14" value="&lt;b&gt;JTAG&lt;br&gt;&lt;/b&gt;" style="rounded=0;whiteSpace=wrap;html=1;verticalAlign=middle;fillColor=#f8cecc;strokeColor=#b85450;" vertex="1" parent="1">
          <mxGeometry x="530" y="464" width="70" height="36" as="geometry" />
        </mxCell>
        <mxCell id="vI11PCZts5h01opIFuYc-15" value="&lt;b&gt;PMOD&lt;br&gt;&lt;/b&gt;" style="rounded=0;whiteSpace=wrap;html=1;verticalAlign=middle;fillColor=#f8cecc;strokeColor=#b85450;" vertex="1" parent="1">
          <mxGeometry x="530" y="520" width="70" height="40" as="geometry" />
        </mxCell>
        <mxCell id="vI11PCZts5h01opIFuYc-32" style="edgeStyle=orthogonalEdgeStyle;rounded=0;orthogonalLoop=1;jettySize=auto;html=1;exitX=1;exitY=0.5;exitDx=0;exitDy=0;entryX=0;entryY=0.5;entryDx=0;entryDy=0;" edge="1" parent="1" source="vI11PCZts5h01opIFuYc-16" target="vI11PCZts5h01opIFuYc-27">
          <mxGeometry relative="1" as="geometry" />
        </mxCell>
        <mxCell id="vI11PCZts5h01opIFuYc-16" value="&lt;b&gt;MUX&lt;br&gt;&lt;/b&gt;" style="rounded=0;whiteSpace=wrap;html=1;verticalAlign=middle;fillColor=#bac8d3;strokeColor=#23445d;" vertex="1" parent="1">
          <mxGeometry x="630" y="220" width="50" height="130" as="geometry" />
        </mxCell>
        <mxCell id="vI11PCZts5h01opIFuYc-24" value="&lt;b&gt;USB HOST&lt;br&gt;&lt;/b&gt;" style="rounded=0;whiteSpace=wrap;html=1;verticalAlign=middle;fillColor=#d5e8d4;strokeColor=#82b366;" vertex="1" parent="1">
          <mxGeometry x="310" y="280" width="70" height="30" as="geometry" />
        </mxCell>
      </root>
    </mxGraphModel>
  </diagram>
</mxfile>
